<svg version="1.1" id="Layer_1" xmlns="http://www.w3.org/2000/svg" xmlns:xlink="http://www.w3.org/1999/xlink" x="0px" y="0px"
	 width="100%" viewBox="0 0 768 768" enable-background="new 0 0 768 768" xml:space="preserve">
<path fill="#000000" opacity="1.000000" stroke="none" 
	d="
M393.999878,428.371002 
	C304.822479,428.370911 216.145081,428.370911 127.467674,428.370911 
	C127.426994,427.967712 127.386322,427.564514 127.345650,427.161316 
	C131.132217,426.668793 134.909637,426.086914 138.706818,425.698090 
	C165.867020,422.916748 193.052078,420.459015 220.357712,419.618011 
	C221.995209,419.567627 224.350388,419.609619 224.183746,417.464539 
	C223.987717,414.940948 223.373108,412.061981 220.199829,411.167236 
	C217.871674,410.510834 214.657501,411.700806 213.313843,409.231934 
	C211.919159,406.669312 213.536453,403.685791 213.946793,400.946350 
	C215.438126,390.990082 215.557236,391.043915 205.457520,391.277374 
	C203.342789,391.326233 201.165207,391.837982 199.028305,390.959900 
	C198.174438,388.812134 198.726791,386.651428 198.850464,384.539856 
	C199.028473,381.500336 200.444321,379.949860 203.819687,379.560242 
	C231.564957,376.357666 259.288818,372.969147 287.016663,369.616211 
	C306.319794,367.281982 325.616760,364.896820 344.921844,362.579071 
	C348.456055,362.154755 350.192139,360.252991 350.598053,356.770020 
	C353.618103,330.855347 356.570129,304.931885 359.789062,279.041718 
	C361.078857,268.667664 361.790680,258.181152 364.632904,248.041443 
	C367.284058,238.583527 373.624817,235.904770 382.932312,240.474136 
	C370.901093,279.914093 370.052795,321.026428 364.084778,361.774445 
	C367.388245,361.482422 367.433258,359.789948 367.613312,358.419586 
	C369.021851,347.697876 370.661469,336.992523 371.577545,326.226654 
	C371.968384,321.633545 373.981354,319.909973 378.035980,319.897095 
	C387.054443,319.868500 395.793823,317.127594 404.827118,317.256744 
	C406.035126,317.274017 407.577393,317.341980 408.133759,315.606598 
	C406.746216,313.642853 404.855652,314.559448 403.141968,314.723267 
	C394.533051,315.546082 385.929230,316.422180 377.319183,317.232819 
	C374.805176,317.469482 372.384216,317.349976 372.930695,313.737457 
	C376.061279,293.042389 377.404236,272.060272 382.782715,251.726044 
	C387.329987,234.534164 388.485687,233.231949 406.186462,234.029587 
	C434.529327,235.306747 462.702484,238.405609 489.133484,249.637314 
	C510.117615,258.554382 526.589111,272.816284 535.009277,294.534760 
	C538.746582,304.174561 544.229126,309.555817 554.797974,311.137238 
	C567.815979,313.085114 580.030579,318.298187 592.258728,323.218414 
	C599.339905,326.067596 603.520813,330.495850 604.146240,338.180084 
	C604.429199,341.655792 604.980225,345.108917 605.362244,348.577484 
	C605.804749,352.595642 606.334961,356.399567 610.550964,358.631714 
	C613.267395,360.069855 614.892639,362.831909 615.828308,365.716156 
	C619.248535,376.259644 620.589172,387.068115 618.948181,398.083008 
	C617.973633,404.624573 613.857971,408.842010 606.467529,408.608002 
	C598.329773,408.350311 595.119507,413.054077 591.565979,420.023804 
	C613.009949,422.349548 633.981873,424.624084 654.953796,426.898621 
	C654.928528,427.389435 654.903320,427.880280 654.878052,428.371094 
	C568.085327,428.371094 481.292633,428.371094 393.999878,428.371002 
M480.435272,279.308014 
	C476.460510,278.986267 472.490723,278.520813 468.509613,278.383728 
	C464.630737,278.250214 463.401489,280.383331 464.708191,283.890594 
	C466.799225,289.502777 469.074005,295.046356 471.175720,300.654724 
	C471.997437,302.847443 473.421692,303.753662 475.724792,303.695251 
	C493.054688,303.255646 510.303833,304.119690 527.482727,306.596619 
	C531.678894,307.201630 532.648987,305.624634 530.964417,301.598053 
	C529.425293,297.919250 527.444214,294.427948 525.793335,290.792480 
	C524.291443,287.485046 521.855042,285.783386 518.284607,284.971069 
	C506.100067,282.198975 493.752808,280.606384 480.435272,279.308014 
M453.462250,362.062408 
	C451.953644,365.045258 449.515778,366.083466 446.196747,366.374878 
	C427.966858,367.975372 409.753265,369.765076 391.539734,371.547974 
	C365.220642,374.124329 338.902130,376.708649 312.592865,379.382996 
	C305.449829,380.109100 298.340912,381.171051 291.216339,382.078888 
	C295.454926,382.715729 299.610870,382.624908 303.743988,382.269318 
	C315.180176,381.285400 326.587280,379.789703 338.041718,379.229340 
	C357.844391,378.260498 377.505737,375.817444 397.242188,374.182526 
	C412.000580,372.959961 426.705841,370.995361 441.479614,370.109528 
	C447.332794,369.758606 451.518707,368.292786 454.867798,363.339111 
	C459.040955,357.166626 464.832672,352.548492 471.718842,349.655304 
	C488.077423,342.782166 508.904877,348.221771 519.420898,363.525635 
	C525.344482,372.146088 531.701111,376.737183 542.211487,375.200897 
	C545.198975,374.764191 548.459595,376.271454 551.278870,374.010406 
	C551.266663,371.434296 549.411194,370.112000 547.919983,368.631561 
	C543.432068,364.175964 537.587646,362.486664 531.647095,361.718842 
	C527.240906,361.149353 524.016174,359.283813 520.688171,356.530243 
	C498.798676,338.419159 470.210693,337.451721 453.462250,362.062408 
M558.431824,346.269806 
	C559.978760,354.762054 561.616516,363.239288 563.020691,371.755066 
	C563.480103,374.540649 564.701050,375.703064 567.525696,375.940674 
	C576.324646,376.680756 585.131775,376.934235 593.955322,377.052643 
	C597.904297,377.105652 599.957031,375.776947 599.597534,371.555847 
	C598.722656,361.285828 598.423462,350.978241 597.077942,340.732269 
	C596.361938,335.279846 593.671143,332.168457 588.831726,329.943420 
	C570.698303,321.606171 551.628540,316.513031 532.007568,313.475525 
	C523.075073,312.092682 514.151062,310.081573 504.557922,310.435944 
	C506.131561,312.141296 507.894623,312.053864 509.399292,312.440704 
	C517.766602,314.591705 526.051941,317.055908 534.385193,319.285889 
	C548.234192,322.991852 556.960938,330.650665 558.431824,346.269806 
M360.817719,415.641144 
	C390.744110,414.914429 420.670471,414.628845 450.597900,415.602783 
	C452.591156,415.667664 454.595154,415.680237 456.582916,415.547943 
	C458.241547,415.437561 460.161926,415.229889 460.409546,413.129639 
	C460.624573,411.305939 459.386322,410.052795 457.793823,409.257355 
	C455.634277,408.178711 453.300018,408.170654 450.961151,408.200256 
	C420.698029,408.583282 390.435028,408.977448 360.171448,409.320099 
	C357.280426,409.352844 354.252472,409.762177 354.214294,413.102020 
	C354.168518,417.108398 357.857788,415.065186 360.817719,415.641144 
M437.950684,303.563782 
	C443.237946,303.935944 448.526428,304.291718 453.812073,304.685608 
	C457.802368,304.982971 459.551941,303.589050 457.998688,299.438843 
	C457.128326,297.113190 456.391785,294.737061 455.612183,292.377960 
	C450.980225,278.360992 451.905334,281.102661 439.873383,281.323700 
	C428.050018,281.540924 428.051300,281.611420 426.620270,293.199066 
	C425.540161,301.945251 425.670349,302.103241 434.580994,303.074799 
	C435.404205,303.164551 436.219910,303.323395 437.950684,303.563782 
M476.958069,381.448303 
	C469.079193,387.096039 466.943787,398.281433 472.240906,406.157196 
	C476.227753,412.084869 482.164154,412.274078 486.572540,406.613983 
	C490.985596,400.947876 491.057343,390.385406 486.704254,384.571899 
	C484.411499,381.509979 481.553619,379.917633 476.958069,381.448303 
M514.469482,324.192902 
	C484.294098,316.375336 453.513092,314.047302 422.476196,314.086609 
	C420.918945,314.088562 418.991943,313.795074 418.354401,317.415802 
	C436.772888,318.314545 455.126312,317.240204 473.261292,319.706299 
	C491.372223,322.169128 509.437103,324.865601 527.221741,329.283752 
	C523.612183,326.530457 519.361145,325.639191 514.469482,324.192902 
M549.939026,412.373474 
	C549.297668,411.368622 548.540222,410.369202 547.267639,410.364563 
	C536.822083,410.326508 526.374878,410.256775 515.931763,410.422180 
	C513.641296,410.458466 512.446716,412.510315 512.567261,414.642517 
	C512.693542,416.875671 514.811951,416.645752 516.419617,416.852783 
	C526.654602,418.170685 536.967224,417.400940 547.229675,417.995239 
	C551.212891,418.225922 552.607422,416.745056 549.939026,412.373474 
M261.582092,389.723297 
	C254.978714,393.698090 254.110443,406.365570 260.803345,410.204651 
	C259.374908,403.182404 258.732574,396.520874 261.582092,389.723297 
M231.825439,405.912567 
	C231.249908,401.086914 231.614899,396.374817 233.555069,391.769104 
	C229.102798,393.885193 228.544235,398.053680 228.474747,402.054901 
	C228.408722,405.856934 228.822037,409.864349 232.965683,412.488983 
	C233.461121,410.056122 232.388474,408.452972 231.825439,405.912567 
M609.630859,369.144928 
	C608.988098,368.102753 608.701111,366.555481 606.700989,367.212830 
	C606.311890,369.236481 605.868286,371.297791 605.532410,373.376434 
	C605.307922,374.766083 605.468262,376.145691 607.247498,376.294403 
	C608.815979,376.425507 610.230286,375.948517 610.556091,374.120789 
	C610.821289,372.633362 610.496582,371.192139 609.630859,369.144928 
M297.877075,413.500946 
	C296.744873,413.889282 295.106689,413.719696 295.372284,415.697113 
	C299.027466,416.879120 299.027466,416.879120 302.231201,414.832916 
	C301.711395,414.532013 301.320282,414.214874 300.873199,414.066925 
	C300.105103,413.812775 299.302094,413.664185 297.877075,413.500946 
z"/>
<path fill="#000000" opacity="1.000000" stroke="none" 
	d="
M182.765625,377.059143 
	C173.790253,378.139893 165.262283,379.153198 156.153671,380.235443 
	C157.071960,377.927216 158.592163,377.976532 159.936218,377.745422 
	C183.392136,373.711761 206.660370,368.769165 229.906097,363.671112 
	C247.928574,359.718567 266.094055,356.417877 284.196228,352.828827 
	C294.628906,350.760376 305.066193,348.714630 315.489929,346.602020 
	C316.770386,346.342499 318.092346,345.917358 319.198303,345.245178 
	C321.424652,343.892181 322.303741,341.727448 321.670776,339.222382 
	C321.003937,336.583313 318.673828,336.827545 316.742157,337.072052 
	C309.809204,337.949646 302.891724,338.956726 295.978699,339.983978 
	C264.538757,344.655884 233.126938,349.517731 201.584869,353.484497 
	C194.892136,354.326172 188.314392,356.112976 181.288071,356.242462 
	C181.864975,354.125916 183.410309,354.178955 184.538788,353.891449 
	C214.218475,346.330017 243.895676,338.757599 273.609589,331.332245 
	C293.138214,326.452148 312.723755,321.799866 332.281525,317.036194 
	C333.089264,316.839478 333.864014,316.508118 334.671112,316.307953 
	C337.069611,315.712891 338.673401,314.340668 338.262604,311.739838 
	C337.792664,308.764526 335.259888,308.867432 333.143890,309.154816 
	C327.869080,309.871094 322.613831,310.762238 317.377991,311.730499 
	C265.853088,321.258850 214.330872,330.801819 162.815140,340.379608 
	C151.862976,342.415833 140.938309,344.600525 130.006271,346.743805 
	C128.548508,347.029572 127.124756,347.597992 125.299873,346.675323 
	C126.386581,345.183472 127.946968,345.035797 129.424057,344.653839 
	C187.088120,329.743042 244.747498,314.814148 302.410278,299.898407 
	C308.693054,298.273254 314.993622,296.717010 321.283295,295.118286 
	C322.249939,294.872650 323.232605,294.646698 324.155243,294.279388 
	C326.805786,293.224304 328.327484,291.219055 327.580872,288.413727 
	C326.757385,285.319366 324.194824,286.480225 322.168732,286.899475 
	C308.309784,289.767303 294.484131,292.800537 280.603455,295.557678 
	C245.505341,302.529175 210.388458,309.406677 175.265533,316.252319 
	C171.268982,317.031250 167.396729,318.695160 162.681061,318.518799 
	C163.915588,316.212433 165.818192,316.133972 167.427185,315.669250 
	C202.296448,305.598328 237.159409,295.505219 272.050995,285.512146 
	C294.121094,279.191193 316.235596,273.025391 338.330963,266.792572 
	C338.971802,266.611786 339.628296,266.484528 340.265167,266.291626 
	C343.419403,265.336304 346.227905,263.364227 345.343353,259.981232 
	C344.392395,256.344238 340.852875,258.045990 338.507416,258.579071 
	C315.440735,263.821594 292.424377,269.285583 269.360138,274.539062 
	C228.639908,283.814178 187.896851,292.989014 147.159653,302.189392 
	C145.731277,302.511993 144.263351,302.659424 141.964951,303.022614 
	C143.776215,300.506134 145.995300,300.350861 147.832275,299.824371 
	C199.847565,284.916504 251.502182,268.806488 303.315460,253.226028 
	C319.890137,248.241959 336.438507,243.170074 353.023529,238.220749 
	C360.135773,236.098328 360.619385,236.841461 359.636871,244.322433 
	C355.778046,273.703796 352.095856,303.108459 348.385376,332.509155 
	C347.551392,339.117065 346.863617,345.743500 346.116364,352.362274 
	C345.756378,355.550293 344.392334,357.101471 340.804352,357.597839 
	C313.922394,361.316986 286.944031,364.215393 260.005035,367.448212 
	C240.341309,369.808014 220.699249,372.348236 201.046677,374.801239 
	C195.103592,375.543060 189.157669,376.262146 182.765625,377.059143 
z"/>
<path fill="#000000" opacity="1.000000" stroke="none" 
	d="
M353.352692,189.086060 
	C381.432800,186.956223 409.071045,186.787628 436.675385,188.850372 
	C466.899963,191.108856 496.907013,195.047165 526.391968,202.343353 
	C533.118469,204.007843 534.556335,202.897491 535.464905,195.990204 
	C535.976257,192.103043 534.837219,187.939087 537.988708,183.138184 
	C553.687073,200.156265 569.097412,216.862091 585.544434,234.691727 
	C561.229980,241.671478 537.942688,246.489594 514.091553,252.697250 
	C515.015686,247.251221 518.323853,244.246750 520.325867,240.645142 
	C523.715881,234.546417 523.686523,233.762390 516.782959,231.908630 
	C491.687653,225.170013 466.379089,219.440002 440.667328,215.487869 
	C405.818542,210.131287 370.770416,208.384079 335.579559,209.287048 
	C308.593414,209.979492 281.698608,212.121765 255.031464,216.420471 
	C237.443451,219.255661 219.995407,222.862747 202.839310,227.749939 
	C201.585175,228.107208 200.353271,228.772171 198.959122,228.008728 
	C199.000381,226.223541 200.531342,226.086426 201.649429,225.618546 
	C226.580261,215.185715 252.224152,206.960876 278.546234,200.842331 
	C303.044586,195.147720 327.843994,191.366257 353.352692,189.086060 
z"/>
<path fill="#000000" opacity="1.000000" stroke="none" 
	d="
M450.457550,527.433960 
	C454.909088,521.552979 460.555542,520.104858 467.364166,520.599731 
	C474.124146,521.091064 480.947754,520.707275 487.707062,520.707275 
	C488.477173,523.761108 486.201111,524.663147 484.912872,525.879517 
	C465.060272,544.623535 442.797058,560.018982 418.939789,573.197571 
	C410.333435,577.951721 401.489502,582.205078 392.545197,586.269592 
	C390.026733,587.414001 387.679504,587.937866 384.916534,586.713806 
	C349.902557,571.201538 317.910919,551.144897 290.465454,524.208069 
	C289.780640,523.535889 288.804871,523.011963 289.022705,521.641846 
	C290.208893,520.105408 292.010590,520.796021 293.550049,520.782410 
	C303.042999,520.698425 312.538147,520.799194 322.029755,520.654785 
	C325.173767,520.606995 327.797424,521.407349 330.409210,523.176147 
	C347.145660,534.510742 365.014801,543.720947 383.687500,551.436401 
	C386.714050,552.686951 389.328308,552.611694 392.298737,551.429932 
	C409.370819,544.638000 425.700684,536.459961 440.867157,526.029053 
	C441.997101,525.251953 443.055878,523.905823 445.146332,524.656250 
	C443.959930,527.912659 440.835999,529.145020 438.685364,531.227783 
	C424.942963,544.536743 409.397797,555.308228 392.274597,563.806213 
	C390.192719,564.839478 388.540131,566.001343 388.825684,569.553650 
	C412.456787,559.786133 431.839813,544.501465 450.457550,527.433960 
z"/>
<path fill="#000000" opacity="1.000000" stroke="none" 
	d="
M427.421051,443.969482 
	C436.204102,443.971863 444.529114,443.916412 452.852386,444.010406 
	C464.483002,444.141724 472.961609,449.578796 475.597687,458.451172 
	C478.437958,468.010773 474.151428,479.243713 464.933960,485.276001 
	C460.926666,487.898590 460.627563,490.497253 463.011292,494.370972 
	C465.416901,498.280334 468.182617,502.105103 469.103546,507.551086 
	C462.921783,508.780121 456.889221,508.492493 450.872681,507.855865 
	C449.264801,507.685760 448.641113,506.001801 447.907654,504.694794 
	C446.034912,501.357513 444.086914,498.060120 442.301758,494.676727 
	C440.736816,491.710663 438.268738,490.974335 435.188416,491.322418 
	C432.093597,491.672119 431.855316,494.189850 431.314331,496.412292 
	C428.415436,508.321167 428.430328,508.324829 416.092041,508.216919 
	C409.911316,508.162842 409.661835,507.801392 410.865143,502.023041 
	C414.557831,484.290344 418.251892,466.557434 421.799011,448.795380 
	C422.415649,445.707581 423.674225,443.910309 427.421051,443.969482 
M437.216583,472.934875 
	C440.871429,476.342499 449.058990,476.434296 453.185089,473.092316 
	C455.846008,470.937103 457.220825,468.193848 456.477692,464.746704 
	C455.720978,461.236633 452.868073,460.192444 449.806244,459.636444 
	C440.675110,457.978271 438.203796,459.842957 437.135345,469.130219 
	C437.021912,470.115875 437.084351,471.121826 437.216583,472.934875 
z"/>
<path fill="#000000" opacity="1.000000" stroke="none" 
	d="
M640.424561,453.380676 
	C639.942810,457.291748 637.747742,460.603851 638.979431,464.407928 
	C641.930237,464.729706 643.361755,462.622559 645.013916,461.158386 
	C649.870605,456.854248 654.738831,452.546509 659.337280,447.973419 
	C662.401306,444.926239 665.748047,443.493500 670.062134,443.836792 
	C674.758423,444.210419 679.551208,443.251038 684.519348,444.383728 
	C683.826477,447.613770 681.533203,448.874329 679.784241,450.497314 
	C672.705688,457.065857 665.642273,463.654572 658.415100,470.057281 
	C655.670166,472.489014 655.336975,474.582611 657.343262,477.735229 
	C662.258179,485.458466 666.879089,493.370117 671.546997,501.248230 
	C672.615601,503.051727 674.101379,504.767914 673.724792,507.821442 
	C667.591553,508.636017 661.346924,508.360443 655.128723,508.104492 
	C653.099670,508.020935 652.212769,506.035828 651.253967,504.499268 
	C648.257385,499.697052 645.265808,494.889832 642.389282,490.015503 
	C640.845703,487.399933 639.299133,487.165619 636.759094,488.915833 
	C632.724670,491.695740 631.884033,495.783478 631.166687,500.128876 
	C629.800171,508.407074 629.739807,508.374695 621.353699,508.395844 
	C608.725830,508.427673 609.818787,509.801453 612.224976,497.117432 
	C615.324585,480.777985 618.810364,464.511688 622.157715,448.219604 
	C622.354736,447.260498 622.612671,446.217255 623.167236,445.447205 
	C624.568970,443.500854 639.484680,442.878326 640.893555,444.843201 
	C642.800049,447.502106 640.681702,450.253082 640.424561,453.380676 
z"/>
<path fill="#000000" opacity="1.000000" stroke="none" 
	d="
M545.092651,460.076416 
	C542.563721,469.823547 542.129211,479.624695 538.584473,488.691742 
	C531.381348,507.116455 507.411072,515.642456 490.588654,505.829163 
	C482.280884,500.982849 478.296478,491.954559 480.265472,481.278992 
	C482.317566,470.152771 484.756348,459.097351 487.087646,448.023926 
	C487.319000,446.925049 487.780975,445.752045 488.485931,444.904602 
	C489.516846,443.665253 504.311554,443.338501 505.621033,444.409912 
	C507.427582,445.888062 506.577301,447.775848 506.225739,449.516144 
	C504.181122,459.637970 501.999756,469.733063 500.051453,479.873108 
	C498.757080,486.609650 500.622528,490.796204 505.213837,492.388123 
	C510.776184,494.316772 517.035767,491.589508 519.741455,485.718750 
	C523.117798,478.392487 523.995056,470.366486 525.691528,462.582336 
	C526.684082,458.028351 527.417358,453.414185 528.150330,448.808502 
	C528.675049,445.511566 530.302795,443.717834 533.807983,443.833496 
	C537.138000,443.943390 540.473145,443.962952 543.805115,443.930542 
	C546.953796,443.899902 547.948730,445.446930 547.359497,448.376190 
	C546.603882,452.132111 545.897034,455.897858 545.092651,460.076416 
z"/>
<path fill="#000000" opacity="1.000000" stroke="none" 
	d="
M156.823517,476.849487 
	C163.123886,466.821991 169.287323,457.134277 175.311539,447.360748 
	C176.887115,444.804565 178.851227,443.823334 181.851868,443.792053 
	C196.073639,443.643738 196.048859,443.578979 199.567307,457.296173 
	C203.488541,472.583649 207.374969,487.881042 211.468597,503.122559 
	C212.476608,506.875580 211.693634,508.528168 207.673370,508.238953 
	C206.183380,508.131775 204.678467,508.235138 203.180359,508.236816 
	C193.945084,508.247223 193.867218,508.269531 191.328766,499.617035 
	C190.584808,497.081329 189.223969,496.157562 186.677811,496.199738 
	C181.019974,496.293488 175.347763,496.427917 169.703690,496.127411 
	C165.860840,495.922852 163.040665,497.131989 161.761429,500.671997 
	C159.360397,507.316254 154.622925,509.204468 148.072861,508.267639 
	C145.018402,507.830811 141.818420,508.781586 138.137360,507.363831 
	C143.756836,496.719360 150.435547,487.079437 156.823517,476.849487 
M176.102295,476.453552 
	C175.468109,477.919189 173.959335,479.019318 174.305801,481.599121 
	C177.458679,481.599121 180.693039,481.663971 183.922989,481.573029 
	C185.665726,481.523956 186.835922,480.459808 186.587006,478.689270 
	C185.983215,474.394470 185.580811,470.013306 183.322937,465.658020 
	C180.135635,468.885376 178.723114,472.661896 176.102295,476.453552 
z"/>
<path fill="#000000" opacity="1.000000" stroke="none" 
	d="
M246.219376,493.655518 
	C249.113998,493.004517 251.922150,492.242981 251.960052,489.267548 
	C251.999283,486.187531 248.918945,485.639282 246.609818,484.868286 
	C242.830215,483.606323 238.945786,482.657990 235.167221,481.393188 
	C228.728760,479.238007 223.079742,475.927429 222.052292,468.509186 
	C220.986649,460.815277 224.139908,454.542145 230.028961,449.633484 
	C235.824951,444.802399 242.894409,443.555389 250.073029,443.016907 
	C257.465668,442.462372 264.632355,443.771179 271.547821,446.537933 
	C275.012787,447.924194 276.468811,449.817780 274.113251,453.300140 
	C273.835571,453.710663 273.646942,454.181976 273.422424,454.627869 
	C269.564270,462.289917 269.583557,462.228668 261.330597,459.652710 
	C256.001648,457.989410 250.565262,457.441254 245.171478,459.359314 
	C243.259811,460.039124 241.408813,461.216827 241.497192,463.575226 
	C241.579712,465.777344 243.552444,466.501221 245.276871,467.055420 
	C249.547592,468.427917 253.886581,469.586578 258.168823,470.924957 
	C265.463501,473.204803 271.257385,477.003510 271.695160,485.556458 
	C272.116882,493.795837 268.560120,500.172821 261.532318,504.240570 
	C251.009338,510.331390 239.654404,510.301270 228.121475,507.849792 
	C227.309799,507.677307 226.508652,507.451599 225.708267,507.230255 
	C213.067230,503.735077 212.453613,502.047424 219.204330,490.995575 
	C220.866196,488.274902 222.384171,487.666412 225.182648,489.341736 
	C231.523590,493.137756 238.457901,494.496552 246.219376,493.655518 
z"/>
<path fill="#000000" opacity="1.000000" stroke="none" 
	d="
M226.423370,243.492828 
	C212.515564,249.151779 215.295670,247.401810 215.161392,259.617432 
	C215.005051,273.839539 215.169693,273.841339 201.532867,278.141205 
	C192.235596,281.072754 192.450256,281.050690 191.485321,271.665314 
	C190.441101,261.509003 190.957840,251.357758 190.854263,241.201050 
	C190.815994,237.446960 192.262756,235.603683 195.959442,234.507767 
	C223.290283,226.405243 251.058807,220.715134 279.413391,217.490738 
	C303.603210,214.739975 327.848389,213.644409 352.143433,213.030563 
	C354.016296,212.983231 356.117004,212.314911 359.016663,215.107529 
	C312.988251,218.907242 268.906250,226.760254 226.423370,243.492828 
z"/>
<path fill="#000000" opacity="1.000000" stroke="none" 
	d="
M563.746887,506.494873 
	C548.848999,498.555328 544.161499,485.055573 550.089905,468.016357 
	C558.019470,445.225677 588.654785,435.208862 608.541809,448.904266 
	C615.119019,453.433716 615.187866,455.337494 608.957336,460.029755 
	C608.293091,460.529968 607.614563,461.028412 607.030823,461.615326 
	C603.436035,465.229645 600.597961,466.592712 595.548645,462.441132 
	C587.058228,455.460297 573.536621,460.484528 569.329407,471.257111 
	C568.105103,474.392151 567.576172,477.738678 567.639771,481.054321 
	C567.805054,489.682159 576.856567,495.093811 586.021118,492.139648 
	C587.588745,491.634277 589.015259,490.704773 590.536499,490.038818 
	C592.992493,488.963684 594.515564,484.967560 597.688904,486.639130 
	C601.514343,488.654266 604.419250,492.121185 606.859131,495.667908 
	C608.375977,497.872833 605.839600,499.293427 604.428711,500.469910 
	C592.253784,510.622986 578.626953,511.667328 563.746887,506.494873 
z"/>
<path fill="#000000" opacity="1.000000" stroke="none" 
	d="
M90.548660,501.756226 
	C94.309875,483.610809 98.066727,465.905731 101.624352,448.160736 
	C102.287216,444.854462 103.921959,443.772034 107.081100,443.791779 
	C120.895767,443.877930 134.711655,443.915161 148.526001,443.816864 
	C152.485977,443.788696 153.432739,445.216370 152.373108,448.970642 
	C149.103287,460.555695 152.612946,459.214691 139.311188,459.298553 
	C133.652176,459.334229 127.991325,459.221375 122.333939,459.322937 
	C118.313545,459.395111 116.515564,462.119019 116.482231,467.902557 
	C116.457664,472.166412 119.770073,470.834991 121.941750,470.894897 
	C127.762939,471.055420 133.593491,471.031464 139.416641,470.907288 
	C142.886215,470.833313 143.893097,472.370483 143.081924,475.540680 
	C139.794495,488.388641 143.214661,486.057831 130.061859,486.295319 
	C125.902084,486.370422 121.724709,486.515045 117.582809,486.229706 
	C113.781319,485.967773 112.150780,487.613892 111.605576,491.172241 
	C111.002380,495.109161 109.899590,498.975159 109.401031,502.920898 
	C108.920670,506.722534 107.349388,508.634674 103.285240,508.276031 
	C100.476906,508.028229 97.619637,508.058838 94.802757,508.245148 
	C89.927528,508.567627 88.897850,506.358459 90.548660,501.756226 
z"/>
<path fill="#000000" opacity="1.000000" stroke="none" 
	d="
M294.802551,472.019836 
	C297.900696,457.376648 298.506958,459.470306 285.635925,459.378143 
	C278.146423,459.324554 278.146149,459.362427 279.627411,452.257141 
	C281.372192,443.887817 281.372162,443.848846 289.780426,443.842377 
	C304.093658,443.831329 318.408142,443.983276 332.719574,443.831268 
	C337.181458,443.783875 339.020935,445.099915 337.368225,449.611755 
	C337.312347,449.764343 337.332001,449.942841 337.295990,450.104675 
	C334.996460,460.454987 336.734009,459.294922 325.952606,459.348969 
	C324.787598,459.354828 323.606079,459.475037 322.460358,459.325958 
	C317.651978,458.700378 315.830597,460.844330 315.015533,465.583191 
	C312.819275,478.352142 309.889191,490.993439 307.570740,503.743652 
	C306.911804,507.367523 305.257324,508.270874 301.888458,508.313019 
	C287.496582,508.493134 287.539368,508.581268 290.469360,494.439850 
	C291.984863,487.125427 293.321564,479.774017 294.802551,472.019836 
z"/>
<path fill="#000000" opacity="1.000000" stroke="none" 
	d="
M387.709839,498.619934 
	C385.594696,508.296051 385.594696,508.296051 375.825531,508.251984 
	C366.481354,508.209839 366.407074,508.194763 368.269653,499.008911 
	C370.515137,487.934540 372.916290,476.891785 375.223663,465.829834 
	C376.455780,459.922760 375.145416,458.396881 369.426727,458.927307 
	C367.096344,459.143463 364.152252,459.655090 363.803284,456.519135 
	C363.465668,453.485168 366.207275,453.025696 368.685883,452.928772 
	C369.668182,452.890381 370.726746,452.952881 371.365662,451.536896 
	C370.205719,449.115173 367.926941,450.873749 366.270508,450.426666 
	C364.073822,449.833740 361.112366,449.920868 361.244751,446.726654 
	C361.372406,443.646271 364.216858,444.043701 366.259949,444.033081 
	C381.734467,443.952484 397.209534,443.983887 412.684296,443.940186 
	C416.077179,443.930603 417.454407,445.006409 416.675232,448.777832 
	C414.468903,459.457092 414.605469,459.485291 403.702850,459.413849 
	C395.794189,459.362030 395.758301,459.354645 394.191315,466.930725 
	C392.035400,477.353882 389.940338,487.789642 387.709839,498.619934 
z"/>
<path fill="#000000" opacity="1.000000" stroke="none" 
	d="
M586.051880,252.055801 
	C585.889954,270.678619 584.221375,288.703308 581.958862,306.680115 
	C581.256287,312.262024 580.472900,312.694275 575.304749,311.057770 
	C571.031921,309.704773 566.755371,308.357330 562.445251,307.130859 
	C559.392456,306.262207 558.247131,304.600861 558.655457,301.289185 
	C560.670105,284.951935 562.139221,268.562408 561.688843,252.076828 
	C561.594604,248.626343 562.876953,246.893951 566.148376,246.080490 
	C571.464539,244.758621 576.725220,243.212631 582.003784,241.741226 
	C584.534973,241.035645 585.851074,241.943466 585.911499,244.589401 
	C585.964661,246.916077 586.004333,249.243073 586.051880,252.055801 
z"/>
<path fill="#000000" opacity="1.000000" stroke="none" 
	d="
M594.887634,337.556244 
	C596.666504,348.612579 598.473633,359.242615 598.271484,370.113342 
	C598.200073,373.951813 596.976990,375.615601 593.045959,375.366547 
	C585.585388,374.893951 578.115112,374.541595 570.643921,374.284454 
	C567.718079,374.183807 566.481079,372.568787 566.056152,370.017517 
	C564.093933,358.235016 562.198364,346.441315 560.197754,334.665436 
	C559.853882,332.641785 560.363037,331.081207 562.416687,331.066010 
	C572.721558,330.989685 582.996582,331.415497 592.828308,334.983887 
	C593.623901,335.272644 594.108765,336.417511 594.887634,337.556244 
z"/>
</svg>